<?xml version="1.0" encoding="utf-8"?>
<!-- Generator: Adobe Illustrator 26.2.1, SVG Export Plug-In . SVG Version: 6.00 Build 0)  -->
<svg version="1.1" id="Layer_1" xmlns="http://www.w3.org/2000/svg" xmlns:xlink="http://www.w3.org/1999/xlink" x="0px" y="0px"
	 width="550px" height="200px" viewBox="0 0 550 200" enable-background="new 0 0 550 200" xml:space="preserve">
<g>
	<path fill="#ED2127" d="M453.86,49.24c0.36,0.05,0.72-0.09,0.94-0.38c0.13-0.12,0.19-0.3,0.17-0.48c0-0.3-0.17-0.57-0.44-0.7
		c-0.34-0.11-0.71-0.15-1.07-0.12h-0.3v1.68H453.86z M453.46,46.64c0.51-0.03,1.02,0.02,1.52,0.14c0.68,0.23,1.12,0.89,1.09,1.61
		c-0.01,0.16-0.03,0.32-0.06,0.47c-0.07,0.42-0.33,0.79-0.71,1c-0.07,0.05-0.14,0.1-0.22,0.14l1.32,2.38h-1.28l-1.19-2.19h-0.77
		v2.19h-1.15v-5.74H453.46z M453.96,54.8c2.81,0.01,5.09-2.27,5.1-5.08c0-0.01,0-0.02,0-0.03c0.01-2.83-2.28-5.14-5.11-5.15
		s-5.14,2.28-5.15,5.11c-0.01,2.83,2.28,5.14,5.11,5.15C453.93,54.8,453.94,54.8,453.96,54.8 M449.9,49.67c0-2.21,1.79-4,4-4
		s4,1.79,4,4c0,2.19-1.75,3.97-3.94,4c-2.21,0.03-4.03-1.73-4.06-3.94C449.9,49.71,449.9,49.69,449.9,49.67 M414.26,82.42
		c-6.61,0-12.41-4.39-14.22-10.75h37.52l5.17-8h-42.68c1.77-6.38,7.58-10.8,14.21-10.81h25.77l5.16-8.07h-31.5
		c-12.61,0.26-22.62,10.7-22.36,23.31c0.26,12.24,10.12,22.1,22.36,22.36h27.09l5.16-8L414.26,82.42z M306.89,90.42h27.1l5.13-8
		H307.5c-8.16,0-14.78-6.62-14.78-14.78c0-8.16,6.62-14.78,14.78-14.78c0,0,0,0,0,0h25.76l5.17-8.07H306.9
		c-12.61-0.26-23.05,9.75-23.31,22.36c-0.26,12.61,9.75,23.05,22.36,23.31c0.32,0.01,0.64,0.01,0.96,0 M140.17,82.46h-25.35
		c-8.16,0-14.78-6.62-14.78-14.78c0-8.16,6.62-14.78,14.78-14.78h25.35c8.16,0,14.78,6.62,14.78,14.78
		C154.95,75.84,148.34,82.46,140.17,82.46C140.17,82.46,140.17,82.46,140.17,82.46 M114.26,90.46h26.52
		c12.61-0.26,22.62-10.7,22.36-23.31c-0.26-12.24-10.12-22.1-22.36-22.36h-26.52c-12.61-0.26-23.05,9.75-23.31,22.36
		s9.75,23.05,22.36,23.31C113.62,90.46,113.94,90.46,114.26,90.46 M206.69,75.67c8.53,0,15.44-6.91,15.44-15.44
		s-6.91-15.44-15.44-15.44h-38.43v45.67h8.78v-37.6h29.06c4.08,0,7.39,3.31,7.39,7.39c0,4.08-3.31,7.39-7.39,7.39h-24.76
		l26.22,22.84h12.7l-17.58-14.81H206.69z M351.92,82.39v-37.6h-8.8v41.3c0.01,1.13,0.48,2.21,1.3,3c0.84,0.87,1.99,1.35,3.2,1.35h40
		l5.22-8.07L351.92,82.39z M244.45,74.39h23.43l-12.38-20l-22.72,36.07h-10.37l27.66-43.27c2.09-2.99,6.2-3.71,9.19-1.63
		c0.61,0.42,1.14,0.95,1.57,1.55l27.74,43.37h-10.31l-4.88-8.07h-23.76L244.45,74.39z"/>
	<g>
		<path d="M229.21,131.78c-0.15,1.65-0.54,3.18-1.16,4.58s-1.48,2.61-2.57,3.63c-1.1,1.02-2.44,1.82-4.02,2.39
			c-1.58,0.57-3.41,0.86-5.48,0.86c-2.07,0-3.95-0.38-5.62-1.12c-1.68-0.75-3.11-1.82-4.29-3.2c-1.18-1.38-2.09-3.06-2.72-5.02
			c-0.63-1.96-0.95-4.17-0.95-6.61v-2.74c0-2.43,0.32-4.62,0.97-6.59c0.65-1.97,1.58-3.65,2.78-5.04s2.66-2.46,4.37-3.22
			c1.71-0.76,3.62-1.14,5.74-1.14c2.01,0,3.79,0.29,5.33,0.87c1.55,0.58,2.85,1.38,3.93,2.41c1.07,1.03,1.92,2.25,2.53,3.67
			c0.61,1.42,1,2.98,1.17,4.66h-5.84c-0.12-1.07-0.34-2.02-0.64-2.88c-0.3-0.85-0.73-1.57-1.29-2.17c-0.56-0.59-1.26-1.05-2.11-1.36
			c-0.85-0.31-1.88-0.46-3.08-0.46c-1.33,0-2.49,0.25-3.49,0.75c-1,0.5-1.83,1.23-2.49,2.18c-0.66,0.95-1.16,2.12-1.5,3.51
			c-0.33,1.39-0.5,2.98-0.5,4.75v2.78c0,1.68,0.15,3.21,0.44,4.59c0.29,1.38,0.75,2.55,1.37,3.54s1.41,1.74,2.39,2.28
			c0.97,0.54,2.14,0.81,3.5,0.81c1.27,0,2.34-0.15,3.21-0.44c0.87-0.29,1.6-0.73,2.17-1.3c0.57-0.57,1.02-1.27,1.33-2.11
			s0.54-1.79,0.68-2.88H229.21z"/>
		<path d="M240.32,138.08h15.32v4.68h-21.19v-33.75h5.87V138.08z"/>
		<path d="M285.59,126.77c0,2.57-0.34,4.86-1.01,6.9s-1.62,3.76-2.84,5.17c-1.22,1.41-2.69,2.5-4.4,3.26
			c-1.72,0.76-3.62,1.14-5.7,1.14c-2.07,0-3.96-0.38-5.68-1.14c-1.72-0.76-3.2-1.84-4.44-3.26c-1.24-1.41-2.21-3.14-2.9-5.17
			c-0.69-2.03-1.03-4.33-1.03-6.9v-1.72c0-2.57,0.34-4.87,1.03-6.91c0.69-2.04,1.65-3.77,2.87-5.19c1.23-1.42,2.7-2.51,4.42-3.27
			c1.72-0.76,3.61-1.14,5.68-1.14c2.09,0,3.99,0.38,5.71,1.14c1.72,0.76,3.2,1.85,4.43,3.27s2.18,3.15,2.85,5.19
			s1.01,4.34,1.01,6.91V126.77z M279.73,125.01c0-1.88-0.18-3.55-0.54-5c-0.36-1.44-0.89-2.65-1.59-3.63
			c-0.7-0.97-1.55-1.71-2.56-2.21s-2.16-0.75-3.44-0.75c-1.25,0-2.38,0.25-3.38,0.75c-1,0.5-1.86,1.24-2.56,2.21
			c-0.7,0.97-1.24,2.18-1.62,3.63c-0.38,1.45-0.57,3.11-0.57,5v1.76c0,1.89,0.19,3.55,0.57,5.01c0.38,1.45,0.92,2.67,1.63,3.65
			c0.71,0.98,1.57,1.72,2.58,2.23c1.01,0.5,2.14,0.75,3.4,0.75c2.6,0,4.59-0.99,5.99-2.97c1.4-1.98,2.1-4.87,2.1-8.67V125.01z"/>
		<path d="M316.13,109.01v22.58c0,1.93-0.33,3.62-0.99,5.08c-0.66,1.45-1.56,2.67-2.7,3.64c-1.14,0.97-2.48,1.7-4.01,2.19
			c-1.53,0.49-3.17,0.73-4.92,0.73c-1.81,0-3.48-0.24-5.02-0.73c-1.54-0.49-2.87-1.22-4-2.19c-1.13-0.97-2.01-2.19-2.64-3.64
			c-0.63-1.45-0.95-3.14-0.95-5.08v-22.58h5.84v22.58c0,1.21,0.16,2.25,0.48,3.12c0.32,0.87,0.77,1.6,1.36,2.17
			c0.59,0.57,1.3,0.99,2.13,1.26s1.77,0.41,2.81,0.41c1.04,0,1.97-0.13,2.82-0.41c0.84-0.27,1.55-0.69,2.13-1.26
			c0.58-0.57,1.03-1.29,1.34-2.17c0.32-0.87,0.48-1.91,0.48-3.12v-22.58H316.13z"/>
		<path d="M322.39,142.76v-33.75h9.97c2.26,0,4.32,0.38,6.18,1.14c1.86,0.76,3.46,1.84,4.8,3.23c1.34,1.4,2.38,3.09,3.12,5.07
			s1.11,4.19,1.11,6.63v1.67c0,2.44-0.37,4.65-1.1,6.62c-0.73,1.97-1.78,3.65-3.13,5.04c-1.35,1.39-2.98,2.46-4.89,3.22
			c-1.91,0.76-4.03,1.14-6.36,1.14H322.39z M328.25,113.74v24.34h3.83c1.59,0,2.99-0.26,4.2-0.78c1.21-0.52,2.21-1.26,3-2.24
			c0.8-0.97,1.39-2.16,1.8-3.57c0.4-1.41,0.6-2.99,0.6-4.75v-1.72c0-3.66-0.8-6.46-2.39-8.39c-1.59-1.93-3.9-2.9-6.93-2.9H328.25z"
			/>
	</g>
</g>
</svg>
